<svg xmlns="http://www.w3.org/2000/svg" width="367" height="92" aria-label="Slop Bucket" role="img" viewBox="8 3 367.1 92" xmlns:c2pa="http://c2pa.org/manifest"><metadata><c2pa:manifest>AAAWgmp1bWIAAAAeanVtZGMycGEAEQAQgAAAqgA4m3EDYzJwYQAAABZcanVtYgAAAEdqdW1kYzJtYQARABCAAACqADibcQN1cm46YzJwYTowNWViNTgyMC1iNWY1LTQ2ZDYtYjE4MC0wZTBlNWM2NmYxYWYAAAADl2p1bWIAAAApanVtZGMyYXMAEQAQgAAAqgA4m3EDYzJwYS5hc3NlcnRpb25zAAAAALxqdW1iAAAARGp1bWRjYm9yABEAEIAAAKoAOJtxE2MycGEuaW5ncmVkaWVudC52MwAAAAAYYzJzaIAslZgmE0mF+z/X9QN9nyMAAABwY2JvcqNpZGM6Zm9ybWF0bWltYWdlL3N2Zyt4bWxqaW5zdGFuY2VJRHgseG1wOmlpZDo4ZjM5MjBmMC00NWJmLTRhMDYtYmFhZi1mMzQyNzhhZTYyYzVscmVsYXRpb25zaGlwaHBhcmVudE9mAAAB4mp1bWIAAABBanVtZGNib3IAEQAQgAAAqgA4m3ETYzJwYS5hY3Rpb25zLnYyAAAAABhjMnNo5OvcaTbxYKHN3WlLD5ajLgAAAZljYm9yomdhY3Rpb25zgqJmYWN0aW9ua2MycGEub3BlbmVkanBhcmFtZXRlcnOha2luZ3JlZGllbnRzgaJjdXJseC1zZWxmI2p1bWJmPWMycGEuYXNzZXJ0aW9ucy9jMnBhLmluZ3JlZGllbnQudjNkaGFzaFggUilg7azP12dxJwgSlnv/1lfGTqBGkO2X3yTS7i2QRvakZmFjdGlvbngdY29tLmFudGhyb3BpYy5jbGF1ZGUucHJvdmlkZWRqcGFyYW1ldGVyc6F4H2NvbS5hbnRocm9waWMub3JpZ2luLWNvbmZpZGVuY2VndW5rbm93bmtkZXNjcmlwdGlvbnhmQ2xhdWRlIHByb3ZpZGVkIHRoaXMgZmlsZSBhdCB0aGUgcmVxdWVzdCBvZiBhIHVzZXIgYW5kIG1heSBoYXZlIGNyZWF0ZWQgb3IgbW9kaWZpZWQgdGhlIGZpbGUgY29udGVudHMubXNvZnR3YXJlQWdlbnShZG5hbWVmQ2xhdWRlcmFsbEFjdGlvbnNJbmNsdWRlZPUAAADIanVtYgAAAEBqdW1kY2JvcgARABCAAACqADibcRNjMnBhLmhhc2guZGF0YQAAAAAYYzJzaInO9Sl4W00VVGkpw09jilEAAACAY2JvcqVjYWxnZnNoYTI1NmNwYWRNAAAAAAAAAAAAAAAAAGRoYXNoWCBropvZ0y+QiQwMtGvxFKzzgjB8TJ/9kHbCcnNkoB8tG2RuYW1lbmp1bWJmIG1hbmlmZXN0amV4Y2x1c2lvbnOBomVzdGFydBi6Zmxlbmd0aBkeBAAAAj5qdW1iAAAAJ2p1bWRjMmNsABEAEIAAAKoAOJtxA2MycGEuY2xhaW0udjIAAAACD2Nib3KlY2FsZ2ZzaGEyNTZpc2lnbmF0dXJleE1zZWxmI2p1bWJmPS9jMnBhL3VybjpjMnBhOjA1ZWI1ODIwLWI1ZjUtNDZkNi1iMTgwLTBlMGU1YzY2ZjFhZi9jMnBhLnNpZ25hdHVyZWppbnN0YW5jZUlEeCx4bXA6aWlkOjYyMjRhMmE3LWZlZWItNGI0MS1hNjM4LWRlMTEzMDE5MGVkM3JjcmVhdGVkX2Fzc2VydGlvbnODomN1cmx4LXNlbGYjanVtYmY9YzJwYS5hc3NlcnRpb25zL2MycGEuaW5ncmVkaWVudC52M2RoYXNoWCBSKWDtrM/XZ3EnCBKWe//WV8ZOoEaQ7ZffJNLuLZBG9qJjdXJseCpzZWxmI2p1bWJmPWMycGEuYXNzZXJ0aW9ucy9jMnBhLmFjdGlvbnMudjJkaGFzaFgg43UBsaW/oFeNBG8cvd4BWQsIN+jvuabTahQuIr79eQWiY3VybHgpc2VsZiNqdW1iZj1jMnBhLmFzc2VydGlvbnMvYzJwYS5oYXNoLmRhdGFkaGFzaFggiCaoa1f45LdfohkNzFXD4ObqKC1EQpMCeD+3vS9r1eR0Y2xhaW1fZ2VuZXJhdG9yX2luZm+jZG5hbWVvQW50aHJvcGljIEZpbGVzZ3ZlcnNpb25lMS4wLjBrc3BlY1ZlcnNpb25lMi40LjAAABA4anVtYgAAAChqdW1kYzJjcwARABCAAACqADibcQNjMnBhLnNpZ25hdHVyZQAAABAIY2JvctKEWQISogEmGCFZAgowggIGMIIBjaADAgECAhRA5aAK7sI50L64g/oGQgU9Z1UTADAKBggqhkjOPQQDAzBJMRcwFQYDVQQKEw5BbnRocm9waWMsIFBCQzEuMCwGA1UEAxMlQW50aHJvcGljIENvbnRlbnQgQ3JlZGVudGlhbHMgUm9vdCBDQTAeFw0yNjA4MDcxODQzNTZaFw0yODA4MDYxOTQzNTZaMEQxFzAVBgNVBAoTDkFudGhyb3BpYywgUEJDMSkwJwYDVQQDEyBBbnRocm9waWMgQ2xhdWRlIENvbnRlbnQgU2lnbmluZzBZMBMGByqGSM49AgEGCCqGSM49AwEHA0IABJh6CmvLUBgFFNU0vUKlOVtE6djd17L5SuwX0LemFisBM3dkd/3cyjxFA3Qo5S46fX0/ihY0VZ7mfb9KF703t5OjWDBWMA4GA1UdDwEB/wQEAwIHgDAVBgNVHSUEDjAMBgorBgEEAYPoXgIBMAwGA1UdEwEB/wQCMAAwHwYDVR0jBBgwFoAUzlHiBIFOZFsj+OPEz5o+nMHXXMIwCgYIKoZIzj0EAwMDZwAwZAIwMXMdFJ4BetLLVY7ORuE9noqbbAZOZn/aArXyTwFAZfKrPzxF2vPoJNf1+UCdg1XGAjBwX1zd9WGqYkqmL5SFqw1QySjr1zJfpJM9+1rdDwSPLMOPOjKuiXjoU/pUUeG9RwmhY3BhZFkNngAAAAAAAAAAAAAAAAAAAAAAAAAAAAAAAAAAAAAAAAAAAAAAAAAAAAAAAAAAAAAAAAAAAAAAAAAAAAAAAAAAAAAAAAAAAAAAAAAAAAAAAAAAAAAAAAAAAAAAAAAAAAAAAAAAAAAAAAAAAAAAAAAAAAAAAAAAAAAAAAAAAAAAAAAAAAAAAAAAAAAAAAAAAAAAAAAAAAAAAAAAAAAAAAAAAAAAAAAAAAAAAAAAAAAAAAAAAAAAAAAAAAAAAAAAAAAAAAAAAAAAAAAAAAAAAAAAAAAAAAAAAAAAAAAAAAAAAAAAAAAAAAAAAAAAAAAAAAAAAAAAAAAAAAAAAAAAAAAAAAAAAAAAAAAAAAAAAAAAAAAAAAAAAAAAAAAAAAAAAAAAAAAAAAAAAAAAAAAAAAAAAAAAAAAAAAAAAAAAAAAAAAAAAAAAAAAAAAAAAAAAAAAAAAAAAAAAAAAAAAAAAAAAAAAAAAAAAAAAAAAAAAAAAAAAAAAAAAAAAAAAAAAAAAAAAAAAAAAAAAAAAAAAAAAAAAAAAAAAAAAAAAAAAAAAAAAAAAAAAAAAAAAAAAAAAAAAAAAAAAAAAAAAAAAAAAAAAAAAAAAAAAAAAAAAAAAAAAAAAAAAAAAAAAAAAAAAAAAAAAAAAAAAAAAAAAAAAAAAAAAAAAAAAAAAAAAAAAAAAAAAAAAAAAAAAAAAAAAAAAAAAAAAAAAAAAAAAAAAAAAAAAAAAAAAAAAAAAAAAAAAAAAAAAAAAAAAAAAAAAAAAAAAAAAAAAAAAAAAAAAAAAAAAAAAAAAAAAAAAAAAAAAAAAAAAAAAAAAAAAAAAAAAAAAAAAAAAAAAAAAAAAAAAAAAAAAAAAAAAAAAAAAAAAAAAAAAAAAAAAAAAAAAAAAAAAAAAAAAAAAAAAAAAAAAAAAAAAAAAAAAAAAAAAAAAAAAAAAAAAAAAAAAAAAAAAAAAAAAAAAAAAAAAAAAAAAAAAAAAAAAAAAAAAAAAAAAAAAAAAAAAAAAAAAAAAAAAAAAAAAAAAAAAAAAAAAAAAAAAAAAAAAAAAAAAAAAAAAAAAAAAAAAAAAAAAAAAAAAAAAAAAAAAAAAAAAAAAAAAAAAAAAAAAAAAAAAAAAAAAAAAAAAAAAAAAAAAAAAAAAAAAAAAAAAAAAAAAAAAAAAAAAAAAAAAAAAAAAAAAAAAAAAAAAAAAAAAAAAAAAAAAAAAAAAAAAAAAAAAAAAAAAAAAAAAAAAAAAAAAAAAAAAAAAAAAAAAAAAAAAAAAAAAAAAAAAAAAAAAAAAAAAAAAAAAAAAAAAAAAAAAAAAAAAAAAAAAAAAAAAAAAAAAAAAAAAAAAAAAAAAAAAAAAAAAAAAAAAAAAAAAAAAAAAAAAAAAAAAAAAAAAAAAAAAAAAAAAAAAAAAAAAAAAAAAAAAAAAAAAAAAAAAAAAAAAAAAAAAAAAAAAAAAAAAAAAAAAAAAAAAAAAAAAAAAAAAAAAAAAAAAAAAAAAAAAAAAAAAAAAAAAAAAAAAAAAAAAAAAAAAAAAAAAAAAAAAAAAAAAAAAAAAAAAAAAAAAAAAAAAAAAAAAAAAAAAAAAAAAAAAAAAAAAAAAAAAAAAAAAAAAAAAAAAAAAAAAAAAAAAAAAAAAAAAAAAAAAAAAAAAAAAAAAAAAAAAAAAAAAAAAAAAAAAAAAAAAAAAAAAAAAAAAAAAAAAAAAAAAAAAAAAAAAAAAAAAAAAAAAAAAAAAAAAAAAAAAAAAAAAAAAAAAAAAAAAAAAAAAAAAAAAAAAAAAAAAAAAAAAAAAAAAAAAAAAAAAAAAAAAAAAAAAAAAAAAAAAAAAAAAAAAAAAAAAAAAAAAAAAAAAAAAAAAAAAAAAAAAAAAAAAAAAAAAAAAAAAAAAAAAAAAAAAAAAAAAAAAAAAAAAAAAAAAAAAAAAAAAAAAAAAAAAAAAAAAAAAAAAAAAAAAAAAAAAAAAAAAAAAAAAAAAAAAAAAAAAAAAAAAAAAAAAAAAAAAAAAAAAAAAAAAAAAAAAAAAAAAAAAAAAAAAAAAAAAAAAAAAAAAAAAAAAAAAAAAAAAAAAAAAAAAAAAAAAAAAAAAAAAAAAAAAAAAAAAAAAAAAAAAAAAAAAAAAAAAAAAAAAAAAAAAAAAAAAAAAAAAAAAAAAAAAAAAAAAAAAAAAAAAAAAAAAAAAAAAAAAAAAAAAAAAAAAAAAAAAAAAAAAAAAAAAAAAAAAAAAAAAAAAAAAAAAAAAAAAAAAAAAAAAAAAAAAAAAAAAAAAAAAAAAAAAAAAAAAAAAAAAAAAAAAAAAAAAAAAAAAAAAAAAAAAAAAAAAAAAAAAAAAAAAAAAAAAAAAAAAAAAAAAAAAAAAAAAAAAAAAAAAAAAAAAAAAAAAAAAAAAAAAAAAAAAAAAAAAAAAAAAAAAAAAAAAAAAAAAAAAAAAAAAAAAAAAAAAAAAAAAAAAAAAAAAAAAAAAAAAAAAAAAAAAAAAAAAAAAAAAAAAAAAAAAAAAAAAAAAAAAAAAAAAAAAAAAAAAAAAAAAAAAAAAAAAAAAAAAAAAAAAAAAAAAAAAAAAAAAAAAAAAAAAAAAAAAAAAAAAAAAAAAAAAAAAAAAAAAAAAAAAAAAAAAAAAAAAAAAAAAAAAAAAAAAAAAAAAAAAAAAAAAAAAAAAAAAAAAAAAAAAAAAAAAAAAAAAAAAAAAAAAAAAAAAAAAAAAAAAAAAAAAAAAAAAAAAAAAAAAAAAAAAAAAAAAAAAAAAAAAAAAAAAAAAAAAAAAAAAAAAAAAAAAAAAAAAAAAAAAAAAAAAAAAAAAAAAAAAAAAAAAAAAAAAAAAAAAAAAAAAAAAAAAAAAAAAAAAAAAAAAAAAAAAAAAAAAAAAAAAAAAAAAAAAAAAAAAAAAAAAAAAAAAAAAAAAAAAAAAAAAAAAAAAAAAAAAAAAAAAAAAAAAAAAAAAAAAAAAAAAAAAAAAAAAAAAAAAAAAAAAAAAAAAAAAAAAAAAAAAAAAAAAAAAAAAAAAAAAAAAAAAAAAAAAAAAAAAAAAAAAAAAAAAAAAAAAAAAAAAAAAAAAAAAAAAAAAAAAAAAAAAAAAAAAAAAAAAAAAAAAAAAAAAAAAAAAAAAAAAAAAAAAAAAAAAAAAAAAAAAAAAAAAAAAAAAAAAAAAAAAAAAAAAAAAAAAAAAAAAAAAAAAAAAAAAAAAAAAAAAAAAAAAAAAAAAAAAAAAAAAAAAAAAAAAAAAAAAAAAAAAAAAAAAAAAAAAAAAAAAAAAAAAAAAAAAAAAAAAAAAAAAAAAAAAAAAAAAAAAAAAAAAAAAAAAAAAAAAAAAAAAAAAAAAAAAAAAAAAAAAAAAAAAAAAAAAAAAAAAAAAAAAAAAAAAAAAAAAAAAAAAAAAAAAAAAAAAAAAAAAAAAAAAAAAAAAAAAAAAAAAAAAAAAAAAAAAAAAAAAAAAAAAAAAAAAAAAAAAAAAAAAAAAAAAAAAAAAAAAAAAAAAAAAAAAAAAAAAAAAAAAAAAAAAAAAAAAAAAAAAAAAAAAAAAAAAAAAAAAAAAAAAAAAAAAAAAAAAAAAAAAAAAAAAAAAAAAAAAAAAAAAAAAAAAAAAAAAAAAAAAAAAAAAAAAAAAAAAAAAAAAAAAAAAAAAAAAAAAAAAAAAAAAAAAAAAAAAAAAAAAAAAAAAAAAAAAAAAAAAAAAAAAAAAAAAAAAAAAAAAAAAAAAAAAAAAAAAAAAAAAAAAAAAAAAAAAAAAAAAAAAAAAAAAAAAAAAAAAAAAAAAAAAAAAAAAAAAAAAAAAAAAAAAAAAAAAAAAAAAAAAAAAAAAAAAAAAAAAAAAAAAAAAAAAAAAAAAAAAAAAAAAAAAAAAAAAAAAAAAAAAAAAAAAAAAAAAAAAAAAAAAAAAAAAAAAAAAAAAAAAAAAAAAAAAAAAAAAAAAAAAAAAAAAAAAAAAAAAAAAAAAAAAAAAAAAAAAAAAAAAAAAAAAAAAAAAAAAAAAAAAAAAAAAAAAAAAAAAAAAAAAAAAAAAAAAAAAAAAAAAAAAAAAAAAAAAAAAAAAAAAAAAAAAAAAAAAAAAAAAAAAAAAAAAAAAAAAAAAAAAAAAAAAAAAAAAAAAAAAAAAAAAAAAAAAAAAAAAAAAAAAAAAAAAAAAAAAAAAAAAAAAAAAAAAAAAAAAAAAAAAAAAAAAAAAAAAAAAAAAAAAAAAAAAAAAAAAAAAAAAAAAAAAAAAAAAAAAAAAAAAAAAAAAAAAAAAAAAAAAAAAAAAAAAAAAAAAAAAAAAAAAAAAAAAAAAAAAAAAAAAAAAAAAAAAAAAAAAAAAAAAAAAAAAAAAAAAAAAAAAAAAAAAAAAAAAAAAAAAAAAAAAAAAAAAAAAAAAAAAAAAAAAAAAAAAAAAAAAAAAAAAAAAAAAAAAAAAAAAAAAAAAAAAAAAAAAAAAAAAAAAAAAAAAAAAAAAAAAAAAAAAAAAAAAAAAAAAAAAAAAAAAAAAAAAAAAAAAAAAAAAAAAAAAAAAAAAAAAAAAAAAAAAAAAAAAAAAAAAAAAAAAAAAAAAAAAAAAAAAAAAAAAAAAAAAAAAAAAAAAAAAAAAAAAAAAAAAAAAAAAAAAAAAAAAAAAAAAAAAAAAAAAAAAAAAAAAAAAAAAAAAAAAAAAAAAAAAAAAAAAAAAAAAAAAAAAAAAAAAAAAAAAAAPZYQPy8xgSLCZeHpmZBW6+Ls/sz6B2y1aIALli6bxOXY/sOv47Bgx6J4AWlyg6U/cdiAOeQHdFSRw55whIyrGu8cBs=</c2pa:manifest></metadata><title>Slop Bucket</title><path fill="none" stroke="#1c1b19" stroke-linecap="round" stroke-width="3.4" d="M20 37C20 18 33 7 50 7s30 11 30 30"/><path fill="#1c1b19" stroke="#1c1b19" stroke-linejoin="round" stroke-width="2.4" d="M24 33c-3-7-5.5-14-6-22 7 2 14 8 18 16Zm52 0c3-7 5.5-14 6-22-7 2-14 8-18 16Z"/><path fill="#eaa79c" d="M23.2 29q-2.5-7.6-3.1-14.4a35 35 0 0 1 10.1 9.8q-4.4.6-7 4.6m53.6 0q2.5-7.6 3.1-14.4a35 35 0 0 0-10.1 9.8c2.8.4 5.4 2 7 4.6"/><path fill="#1c1b19" stroke="#1c1b19" stroke-linejoin="round" stroke-width="2.4" d="M19 36c1 20 5 38 8 50 11 6 35 6 46 0 3-12 7-30 8-50Zm0 0c0-4 14-7 31-7s31 3 31 7-14 7-31 7-31-3-31-7Z"/><path fill="#b5a57c" d="M22 36.5c0-3 13-5 28-5s28 2 28 5c0 2.5-13 4-28 4s-28-1.5-28-4m1 4.7a9 9 0 0 1 2.5 6.8v6.5c0 2 1.4 3.5 3 3.5s3-1.5 3-3.5V48q-.2-3.7 2.5-6.2Z"/><path fill="none" stroke="#fffdf7" stroke-linecap="round" stroke-width="2.4" d="M33.5 51.5c3-1.5 8-1.5 11 0m11 0c3-1.5 8-1.5 11 0"/><path fill="#fffdf7" d="M35.9 54.6a2.3 2.3 0 1 0 4.6 0 2.3 2.3 0 1 0-4.6 0m21.6 0a2.3 2.3 0 1 0 4.6 0 2.3 2.3 0 1 0-4.6 0"/><path fill="#f6d3cb" d="M50 58c6.6 0 11.5 3.2 11.5 7.2s-4.9 7.2-11.5 7.2-11.5-3.2-11.5-7.2S43.4 58 50 58"/><path fill="#1c1b19" d="M44.4 65.2a1.6 2.5 0 1 0 3.2 0 1.6 2.5 0 1 0-3.2 0m8 0a1.6 2.5 0 1 0 3.2 0 1.6 2.5 0 1 0-3.2 0"/><path fill="none" stroke="#1c1b19" stroke-linecap="round" stroke-width="2.8" d="M80.5 66c4.5.5 8.5-2 8.5-6 0-3.5-4.5-4-5-.5s4 5 8 2"/><path fill="#1c1b19" d="M118.6 77.2q-3.9 0-6.8-1.4t-4.5-3.9-1.7-6.1v-1.4h6.1v1.4q0 2.9 1.9 4.4t5 1.5 4.8-1.3q1.5-1.3 1.5-3.2 0-1.4-.7-2.3-.8-.8-2.3-1.3t-3.6-1.1l-1.1-.2q-3.4-.7-5.8-1.9t-3.7-3-1.3-4.9 1.4-5.2 4-3.3 6.2-1.2 6.3 1.2 4.3 3.6 1.6 6V55h-6.1v-1.4q0-1.9-.7-3.1-.8-1.1-2.1-1.6t-3.3-.6q-2.8 0-4.2 1.1-1.3 1-1.3 2.9 0 1.2.6 2t1.9 1.5q1.3.5 3.3.9l1.1.3q3.5.7 6.1 1.9t4.1 3.1 1.5 5-1.6 5.3-4.3 3.6-6.6 1.3m16.7-.7v-33h5.9v33Zm23 .7q-3.5 0-6.2-1.5-2.8-1.4-4.4-4.1t-1.6-6.4v-.8q0-3.7 1.6-6.4t4.4-4.1q2.7-1.4 6.2-1.4t6.3 1.4T169 58t1.6 6.4v.8q0 3.8-1.6 6.4t-4.4 4.1-6.3 1.5m0-5.3q2.8 0 4.6-1.8t1.8-5.1v-.4q0-3.3-1.8-5.1t-4.6-1.8-4.5 1.8-1.8 5.1v.4q0 3.3 1.8 5.1t4.5 1.8m17.2 14V53.1h5.8v2.8h.9q.8-1.3 2.5-2.4t4.8-1q2.8 0 5.2 1.3t3.9 4.1q1.5 2.7 1.5 6.5v.8q0 3.8-1.5 6.5t-3.9 4.1-5.2 1.4q-2.1 0-3.6-.5-1.4-.5-2.3-1.3l-1.4-1.6h-.8v12.1ZM187.7 72q2.8 0 4.6-1.8t1.8-5.2v-.4q0-3.4-1.8-5.2t-4.6-1.8-4.6 1.8-1.8 5.2v.4q0 3.4 1.8 5.2t4.6 1.8m27.5 4.5V71h4.3V49h-4.3v-5.5h17q3 0 5.2 1t3.5 2.9 1.2 4.4v.5q0 2.3-.8 3.7t-2 2.2-2.2 1.1v.9q1 .3 2.3 1 1.2.8 2.1 2.3.8 1.5.8 3.8v.5q0 2.7-1.2 4.7-1.3 1.9-3.6 3-2.2 1-5.2 1Zm10.5-5.7h5.9q2 0 3.3-.9t1.2-2.9v-.4q0-1.9-1.2-2.9t-3.3-1h-5.9Zm0-13.7h5.8q1.9 0 3.2-1 1.2-1 1.2-2.7v-.5q0-1.8-1.2-2.8t-3.2-.9h-5.8Zm30.2 19.8q-2.7 0-4.8-1.3-2-1.2-3.1-3.4t-1.2-5.1v-14h6v13.5q0 2.6 1.3 4t3.7 1.3q2.7 0 4.2-1.8t1.5-5.1V53.1h6v23.4h-5.9v-3.1h-.8q-.6 1.2-2.2 2.3-1.5 1.2-4.7 1.2m30.5.3q-3.4 0-6.1-1.5-2.8-1.4-4.4-4.1t-1.6-6.5v-.6q0-3.8 1.6-6.5t4.4-4.1 6.1-1.4 5.8 1.1q2.4 1.2 3.9 3.3t1.9 4.6l-5.7 1.2q-.2-1.4-.9-2.5t-1.8-1.8-3-.7-3.2.8-2.3 2.3-.8 3.8v.4q0 2.3.8 3.8t2.3 2.3 3.2.8q2.7 0 4.1-1.4t1.7-3.7l5.8 1.4q-.6 2.5-2.1 4.6t-3.9 3.2-5.8 1.2m16.1-.7v-33h5.9v18.2h.9l7.7-8.6h7.7l-10.8 11.3 11.2 12.1h-7.6l-8.2-9.3h-.9v9.3Zm35.2.7q-3.5 0-6.1-1.5-2.7-1.5-4.2-4.2t-1.5-6.4v-.6q0-3.7 1.5-6.4 1.4-2.7 4.1-4.2 2.6-1.4 6.1-1.4t6 1.5 4 4.2q1.4 2.7 1.4 6.3v2.1h-17q.1 2.4 1.7 3.9 1.7 1.5 4.2 1.5t3.7-1.1 1.8-2.4l4.8 2.5q-.6 1.3-1.9 2.7t-3.3 2.4-5.3 1.1M332 62.1h10.9q-.1-2-1.6-3.2-1.4-1.3-3.7-1.3t-3.9 1.3q-1.4 1.2-1.7 3.2m29.9 14.4q-2.4 0-3.8-1.4-1.4-1.5-1.4-3.9V58h-5.9v-4.9h5.9v-7.2h5.9v7.2h6.4V58h-6.4v12.2q0 1.4 1.3 1.4h4.6v4.9Z"/></svg>