<svg xmlns="http://www.w3.org/2000/svg" width="289" height="92" aria-label="Slop Bucket" role="img" viewBox="8 3 288.8 92" xmlns:c2pa="http://c2pa.org/manifest"><metadata><c2pa:manifest>AAAWgmp1bWIAAAAeanVtZGMycGEAEQAQgAAAqgA4m3EDYzJwYQAAABZcanVtYgAAAEdqdW1kYzJtYQARABCAAACqADibcQN1cm46YzJwYToxZTljNjNhMC0wNGVlLTRlMzgtOWQ1MS1lOTI0NDViYWQ0MjAAAAADl2p1bWIAAAApanVtZGMyYXMAEQAQgAAAqgA4m3EDYzJwYS5hc3NlcnRpb25zAAAAALxqdW1iAAAARGp1bWRjYm9yABEAEIAAAKoAOJtxE2MycGEuaW5ncmVkaWVudC52MwAAAAAYYzJzaKZPU1+P38Eu59CyuAnuepAAAABwY2JvcqNpZGM6Zm9ybWF0bWltYWdlL3N2Zyt4bWxqaW5zdGFuY2VJRHgseG1wOmlpZDplMDA3NzhkOS04MjFkLTQ5ZDktOTY1ZC05NzVjYmY0NWNiNjRscmVsYXRpb25zaGlwaHBhcmVudE9mAAAB4mp1bWIAAABBanVtZGNib3IAEQAQgAAAqgA4m3ETYzJwYS5hY3Rpb25zLnYyAAAAABhjMnNoDhvLqqacxiMmTk5x2jaIxQAAAZljYm9yomdhY3Rpb25zgqJmYWN0aW9ua2MycGEub3BlbmVkanBhcmFtZXRlcnOha2luZ3JlZGllbnRzgaJjdXJseC1zZWxmI2p1bWJmPWMycGEuYXNzZXJ0aW9ucy9jMnBhLmluZ3JlZGllbnQudjNkaGFzaFggsluwA5+aDHzSiv3XgfiouYRRM3vSUUCBPrjpmwF/miikZmFjdGlvbngdY29tLmFudGhyb3BpYy5jbGF1ZGUucHJvdmlkZWRqcGFyYW1ldGVyc6F4H2NvbS5hbnRocm9waWMub3JpZ2luLWNvbmZpZGVuY2VndW5rbm93bmtkZXNjcmlwdGlvbnhmQ2xhdWRlIHByb3ZpZGVkIHRoaXMgZmlsZSBhdCB0aGUgcmVxdWVzdCBvZiBhIHVzZXIgYW5kIG1heSBoYXZlIGNyZWF0ZWQgb3IgbW9kaWZpZWQgdGhlIGZpbGUgY29udGVudHMubXNvZnR3YXJlQWdlbnShZG5hbWVmQ2xhdWRlcmFsbEFjdGlvbnNJbmNsdWRlZPUAAADIanVtYgAAAEBqdW1kY2JvcgARABCAAACqADibcRNjMnBhLmhhc2guZGF0YQAAAAAYYzJzaLaZOhQ8f/pSRL8YXe5iAxgAAACAY2JvcqVjYWxnZnNoYTI1NmNwYWRNAAAAAAAAAAAAAAAAAGRoYXNoWCB9bnYPJtU82blAKQubUoQMxMjUqWuN+qQ3p6lwl2LH62RuYW1lbmp1bWJmIG1hbmlmZXN0amV4Y2x1c2lvbnOBomVzdGFydBi6Zmxlbmd0aBkeBAAAAj5qdW1iAAAAJ2p1bWRjMmNsABEAEIAAAKoAOJtxA2MycGEuY2xhaW0udjIAAAACD2Nib3KlY2FsZ2ZzaGEyNTZpc2lnbmF0dXJleE1zZWxmI2p1bWJmPS9jMnBhL3VybjpjMnBhOjFlOWM2M2EwLTA0ZWUtNGUzOC05ZDUxLWU5MjQ0NWJhZDQyMC9jMnBhLnNpZ25hdHVyZWppbnN0YW5jZUlEeCx4bXA6aWlkOjljOTUxNWQ3LWRkNWItNGY1NC1hZDAwLTZiY2MyMzM0YjllOXJjcmVhdGVkX2Fzc2VydGlvbnODomN1cmx4LXNlbGYjanVtYmY9YzJwYS5hc3NlcnRpb25zL2MycGEuaW5ncmVkaWVudC52M2RoYXNoWCCyW7ADn5oMfNKK/deB+Ki5hFEze9JRQIE+uOmbAX+aKKJjdXJseCpzZWxmI2p1bWJmPWMycGEuYXNzZXJ0aW9ucy9jMnBhLmFjdGlvbnMudjJkaGFzaFggqZORNmOO2ZFxRj11QI6mI8ThODBeVV8f/d49aAMubpiiY3VybHgpc2VsZiNqdW1iZj1jMnBhLmFzc2VydGlvbnMvYzJwYS5oYXNoLmRhdGFkaGFzaFgg00RXNUXo1nRIpb0Qrys223ZUJn6O95gBmga0twJYIYF0Y2xhaW1fZ2VuZXJhdG9yX2luZm+jZG5hbWVvQW50aHJvcGljIEZpbGVzZ3ZlcnNpb25lMS4wLjBrc3BlY1ZlcnNpb25lMi40LjAAABA4anVtYgAAAChqdW1kYzJjcwARABCAAACqADibcQNjMnBhLnNpZ25hdHVyZQAAABAIY2JvctKEWQISogEmGCFZAgowggIGMIIBjaADAgECAhRA5aAK7sI50L64g/oGQgU9Z1UTADAKBggqhkjOPQQDAzBJMRcwFQYDVQQKEw5BbnRocm9waWMsIFBCQzEuMCwGA1UEAxMlQW50aHJvcGljIENvbnRlbnQgQ3JlZGVudGlhbHMgUm9vdCBDQTAeFw0yNjA4MDcxODQzNTZaFw0yODA4MDYxOTQzNTZaMEQxFzAVBgNVBAoTDkFudGhyb3BpYywgUEJDMSkwJwYDVQQDEyBBbnRocm9waWMgQ2xhdWRlIENvbnRlbnQgU2lnbmluZzBZMBMGByqGSM49AgEGCCqGSM49AwEHA0IABJh6CmvLUBgFFNU0vUKlOVtE6djd17L5SuwX0LemFisBM3dkd/3cyjxFA3Qo5S46fX0/ihY0VZ7mfb9KF703t5OjWDBWMA4GA1UdDwEB/wQEAwIHgDAVBgNVHSUEDjAMBgorBgEEAYPoXgIBMAwGA1UdEwEB/wQCMAAwHwYDVR0jBBgwFoAUzlHiBIFOZFsj+OPEz5o+nMHXXMIwCgYIKoZIzj0EAwMDZwAwZAIwMXMdFJ4BetLLVY7ORuE9noqbbAZOZn/aArXyTwFAZfKrPzxF2vPoJNf1+UCdg1XGAjBwX1zd9WGqYkqmL5SFqw1QySjr1zJfpJM9+1rdDwSPLMOPOjKuiXjoU/pUUeG9RwmhY3BhZFkNngAAAAAAAAAAAAAAAAAAAAAAAAAAAAAAAAAAAAAAAAAAAAAAAAAAAAAAAAAAAAAAAAAAAAAAAAAAAAAAAAAAAAAAAAAAAAAAAAAAAAAAAAAAAAAAAAAAAAAAAAAAAAAAAAAAAAAAAAAAAAAAAAAAAAAAAAAAAAAAAAAAAAAAAAAAAAAAAAAAAAAAAAAAAAAAAAAAAAAAAAAAAAAAAAAAAAAAAAAAAAAAAAAAAAAAAAAAAAAAAAAAAAAAAAAAAAAAAAAAAAAAAAAAAAAAAAAAAAAAAAAAAAAAAAAAAAAAAAAAAAAAAAAAAAAAAAAAAAAAAAAAAAAAAAAAAAAAAAAAAAAAAAAAAAAAAAAAAAAAAAAAAAAAAAAAAAAAAAAAAAAAAAAAAAAAAAAAAAAAAAAAAAAAAAAAAAAAAAAAAAAAAAAAAAAAAAAAAAAAAAAAAAAAAAAAAAAAAAAAAAAAAAAAAAAAAAAAAAAAAAAAAAAAAAAAAAAAAAAAAAAAAAAAAAAAAAAAAAAAAAAAAAAAAAAAAAAAAAAAAAAAAAAAAAAAAAAAAAAAAAAAAAAAAAAAAAAAAAAAAAAAAAAAAAAAAAAAAAAAAAAAAAAAAAAAAAAAAAAAAAAAAAAAAAAAAAAAAAAAAAAAAAAAAAAAAAAAAAAAAAAAAAAAAAAAAAAAAAAAAAAAAAAAAAAAAAAAAAAAAAAAAAAAAAAAAAAAAAAAAAAAAAAAAAAAAAAAAAAAAAAAAAAAAAAAAAAAAAAAAAAAAAAAAAAAAAAAAAAAAAAAAAAAAAAAAAAAAAAAAAAAAAAAAAAAAAAAAAAAAAAAAAAAAAAAAAAAAAAAAAAAAAAAAAAAAAAAAAAAAAAAAAAAAAAAAAAAAAAAAAAAAAAAAAAAAAAAAAAAAAAAAAAAAAAAAAAAAAAAAAAAAAAAAAAAAAAAAAAAAAAAAAAAAAAAAAAAAAAAAAAAAAAAAAAAAAAAAAAAAAAAAAAAAAAAAAAAAAAAAAAAAAAAAAAAAAAAAAAAAAAAAAAAAAAAAAAAAAAAAAAAAAAAAAAAAAAAAAAAAAAAAAAAAAAAAAAAAAAAAAAAAAAAAAAAAAAAAAAAAAAAAAAAAAAAAAAAAAAAAAAAAAAAAAAAAAAAAAAAAAAAAAAAAAAAAAAAAAAAAAAAAAAAAAAAAAAAAAAAAAAAAAAAAAAAAAAAAAAAAAAAAAAAAAAAAAAAAAAAAAAAAAAAAAAAAAAAAAAAAAAAAAAAAAAAAAAAAAAAAAAAAAAAAAAAAAAAAAAAAAAAAAAAAAAAAAAAAAAAAAAAAAAAAAAAAAAAAAAAAAAAAAAAAAAAAAAAAAAAAAAAAAAAAAAAAAAAAAAAAAAAAAAAAAAAAAAAAAAAAAAAAAAAAAAAAAAAAAAAAAAAAAAAAAAAAAAAAAAAAAAAAAAAAAAAAAAAAAAAAAAAAAAAAAAAAAAAAAAAAAAAAAAAAAAAAAAAAAAAAAAAAAAAAAAAAAAAAAAAAAAAAAAAAAAAAAAAAAAAAAAAAAAAAAAAAAAAAAAAAAAAAAAAAAAAAAAAAAAAAAAAAAAAAAAAAAAAAAAAAAAAAAAAAAAAAAAAAAAAAAAAAAAAAAAAAAAAAAAAAAAAAAAAAAAAAAAAAAAAAAAAAAAAAAAAAAAAAAAAAAAAAAAAAAAAAAAAAAAAAAAAAAAAAAAAAAAAAAAAAAAAAAAAAAAAAAAAAAAAAAAAAAAAAAAAAAAAAAAAAAAAAAAAAAAAAAAAAAAAAAAAAAAAAAAAAAAAAAAAAAAAAAAAAAAAAAAAAAAAAAAAAAAAAAAAAAAAAAAAAAAAAAAAAAAAAAAAAAAAAAAAAAAAAAAAAAAAAAAAAAAAAAAAAAAAAAAAAAAAAAAAAAAAAAAAAAAAAAAAAAAAAAAAAAAAAAAAAAAAAAAAAAAAAAAAAAAAAAAAAAAAAAAAAAAAAAAAAAAAAAAAAAAAAAAAAAAAAAAAAAAAAAAAAAAAAAAAAAAAAAAAAAAAAAAAAAAAAAAAAAAAAAAAAAAAAAAAAAAAAAAAAAAAAAAAAAAAAAAAAAAAAAAAAAAAAAAAAAAAAAAAAAAAAAAAAAAAAAAAAAAAAAAAAAAAAAAAAAAAAAAAAAAAAAAAAAAAAAAAAAAAAAAAAAAAAAAAAAAAAAAAAAAAAAAAAAAAAAAAAAAAAAAAAAAAAAAAAAAAAAAAAAAAAAAAAAAAAAAAAAAAAAAAAAAAAAAAAAAAAAAAAAAAAAAAAAAAAAAAAAAAAAAAAAAAAAAAAAAAAAAAAAAAAAAAAAAAAAAAAAAAAAAAAAAAAAAAAAAAAAAAAAAAAAAAAAAAAAAAAAAAAAAAAAAAAAAAAAAAAAAAAAAAAAAAAAAAAAAAAAAAAAAAAAAAAAAAAAAAAAAAAAAAAAAAAAAAAAAAAAAAAAAAAAAAAAAAAAAAAAAAAAAAAAAAAAAAAAAAAAAAAAAAAAAAAAAAAAAAAAAAAAAAAAAAAAAAAAAAAAAAAAAAAAAAAAAAAAAAAAAAAAAAAAAAAAAAAAAAAAAAAAAAAAAAAAAAAAAAAAAAAAAAAAAAAAAAAAAAAAAAAAAAAAAAAAAAAAAAAAAAAAAAAAAAAAAAAAAAAAAAAAAAAAAAAAAAAAAAAAAAAAAAAAAAAAAAAAAAAAAAAAAAAAAAAAAAAAAAAAAAAAAAAAAAAAAAAAAAAAAAAAAAAAAAAAAAAAAAAAAAAAAAAAAAAAAAAAAAAAAAAAAAAAAAAAAAAAAAAAAAAAAAAAAAAAAAAAAAAAAAAAAAAAAAAAAAAAAAAAAAAAAAAAAAAAAAAAAAAAAAAAAAAAAAAAAAAAAAAAAAAAAAAAAAAAAAAAAAAAAAAAAAAAAAAAAAAAAAAAAAAAAAAAAAAAAAAAAAAAAAAAAAAAAAAAAAAAAAAAAAAAAAAAAAAAAAAAAAAAAAAAAAAAAAAAAAAAAAAAAAAAAAAAAAAAAAAAAAAAAAAAAAAAAAAAAAAAAAAAAAAAAAAAAAAAAAAAAAAAAAAAAAAAAAAAAAAAAAAAAAAAAAAAAAAAAAAAAAAAAAAAAAAAAAAAAAAAAAAAAAAAAAAAAAAAAAAAAAAAAAAAAAAAAAAAAAAAAAAAAAAAAAAAAAAAAAAAAAAAAAAAAAAAAAAAAAAAAAAAAAAAAAAAAAAAAAAAAAAAAAAAAAAAAAAAAAAAAAAAAAAAAAAAAAAAAAAAAAAAAAAAAAAAAAAAAAAAAAAAAAAAAAAAAAAAAAAAAAAAAAAAAAAAAAAAAAAAAAAAAAAAAAAAAAAAAAAAAAAAAAAAAAAAAAAAAAAAAAAAAAAAAAAAAAAAAAAAAAAAAAAAAAAAAAAAAAAAAAAAAAAAAAAAAAAAAAAAAAAAAAAAAAAAAAAAAAAAAAAAAAAAAAAAAAAAAAAAAAAAAAAAAAAAAAAAAAAAAAAAAAAAAAAAAAAAAAAAAAAAAAAAAAAAAAAAAAAAAAAAAAAAAAAAAAAAAAAAAAAAAAAAAAAAAAAAAAAAAAAAAAAAAAAAAAAAAAAAAAAAAAAAAAAAAAAAAAAAAAAAAAAAAAAAAAAAAAAAAAAAAAAAAAAAAAAAAAAAAAAAAAAAAAAAAAAAAAAAAAAAAAAAAAAAAAAAAAAAAAAAAAAAAAAAAAAAAAAAAAAAAAAAAAAAAAAAAAAAAAAAAAAAAAAAAAAAAAAAAAAAAAAAAAAAAAAAAAAAAAAAAAAAAAAAAAAAAAAAAAAAAAAAAAAAAAAAAAAAAAAAAAAAAAAAAAAAAAAAAAAAAAAAAAAAAAAAAAAAAAAAAAAAAAAAAAAAAAAAAAAAAAAAAAAAAAAAAAAAAAAAAAAAAAAAAAAAAAAAAAAAAAAAAAAAAAAAAAAAAAAAAAAAAAAAAAAAAAAAAAAAAAAAAAAAAAAAAAAAAAAAAAAAAAAAAAAAAAAAAAAAAAAAAAAAAAAAAAAAAAAAAAAAAAAAAAAAAAAAAAAAAAAAAAAAAAAAAAAAAAAAAAAAAAAAAAAAAAAAAAAAAAAAAAAAAAAAAAAAAAAAAAAAAAAAAAAAAAAAAAAAAAAAAAAAAAAAAAAAAAAAAAAAAAAAAAAAAAAAAAAAAAAAAAAAAAAAAAAAAAAAAAAAAAAAAAAAAAAAAAAAAAAAAAAAAAAAAAAAAAAAAAAAAAAAAAAAAAAAAAAAAAAAAAAAAAAAAAAAAAAAAAAAAAAAAAAAAAAAAAAAAAAAAAAAAAAAAAAAAAAAAAAAAAAAAAAAAAAAAAAAAAAAAAAAAAAAAAAAAAAAAAAAAAAAAAAAAAAAAAAAAAAAAAAAAAAAAAAAAAAAAAAAAAAAAAAAAAAAAAAAAAAAAAAAAAAAAAAAAAAAAAAAAAAAAAAAAAAAAAAAAAAAAAAAAAAAAAAAAAAAAAAAAAAAAAAAAAAAAAAAAAAAAAAAAAAAAAAAAAAAAAAAAAAAAAAAAAAAAAAAAAAAAAAAAAAAAAAAAAAAAAAAAAAAAAAAAAAAAAAAAAAAAAAAAAAAAAAAAAAAAAAAAAAAAAAAAAAAAAAAAAAAAAAAAAAAAAAAAAAAAAAAAAAAAAAAAAAAAAAAAAAAAAAAAAAAAAAAAAAAAAAAAAAAAAAAAAAAAAAAAAAAAAAAAAAAAAAAAAAAAAAAAAAPZYQK5kDj3OUnjyGMzy06PIW9hU26qFB9N09Hc9WVQGoXq2pmwYBtPekv67Y5AnhMwHpQIdysLg4mxUNQgeljJ8qUk=</c2pa:manifest></metadata><title>Slop Bucket</title><path fill="#1c1b19" d="M20 37c.2-.4.4-1.7.6-2.6l.2-2.6.5-2.6.7-2.5.9-2.5 1.2-2.3 1.4-2.2 1.5-2 1.7-2 1.9-1.7a29 29 0 0 1 4.3-2.9l2.4-1.1 2.4-.9 2.5-.7 2.6-.6 5.2-.5 2.6.1 2.6.3 2.6.6 2.5.8 2.4.9 2.4 1.1 2.2 1.3 2.1 1.5 1.9 1.8 1.7 2 1.5 2.1 1.3 2.2 1.2 2.3 1 2.4.7 2.5.5 2.6.2 2.6.4 2.6q.2.6.3 0l.3-2.7-.3-2.7a29 29 0 0 0-1.2-5.2l-1-2.5-1.1-2.4-1.3-2.4-1.6-2.2-1.7-2.1-2-1.8q-1-1-2.2-1.6L65.7 10l-2.5-1.1-2.6-.9a20 20 0 0 0-5.2-1.3l-2.7-.3H50l-2.7.2-2.7.3-2.6.5-2.6.7-2.5.9-2.5 1.1-2.3 1.4-2.1 1.7-2 1.8-1.8 2-1.7 2.1-1.4 2.3-1.2 2.4-1 2.6-.7 2.6-.4 2.6a12 12 0 0 0 0 5.4q.1.6.2 0"/><path fill="#fffdf7" d="M24 33c-3-7-5.5-14-6-22 7 2 14 8 18 16Z"/><path fill="#f6d3cb" d="M24.7 33.5c-3-7-5.5-14-6-22 7 2 14 8 18 16z"/><path fill="#eaa79c" d="M23.2 29q-2.5-7.6-3.1-14.4a35 35 0 0 1 10.1 9.8q-4.4.6-7 4.6"/><path fill="#1c1b19" d="M24.3 32.9c0-.5-.1-1.9-.3-2.8l-1-2.4-.9-2.4-.8-2.5-.7-2.5-.6-2.6-.5-2.5-.4-2.4q-.4-.7-.1-.7.6.2 1.9 1l2.3 1.2 2.1 1.4 2 1.7 1.8 1.8 1.7 1.9 1.5 2 1.4 2.2 2 1.9q.5.3.4-.2c-.1-.5-.2-2-.6-2.8Q35 23 34 21.9l-1.6-2.2-1.8-2-1.9-2-2.1-1.8q-1-.8-2.3-1.5-1.1-.8-2.4-1.3c-1-.4-2.4-1.2-3.2-.9s-1.4 1.5-1.7 2.4c-.2.9.3 2 .4 2.9l.5 2.7.6 2.6.7 2.6.8 2.6 1 2.5 1.1 2.4c.5.8 1.4 1.8 1.8 2.1q.5.6.4-.1"/><path fill="#fffdf7" d="M76 33c3-7 5.5-14 6-22-7 2-14 8-18 16Z"/><path fill="#f6d3cb" d="M76.7 33.5c3-7 5.5-14 6-22-7 2-14 8-18 16z"/><path fill="#eaa79c" d="M76.8 29q2.5-7.6 3.1-14.4a35 35 0 0 0-10.1 9.8c2.8.4 5.4 2 7 4.6"/><path fill="#1c1b19" d="m76.1 33.1 1.7-2.2.9-2.5.9-2.5.9-2.6.8-2.5.7-2.6.6-2.7q.5-1.5.4-2.9c-.2-.8-.9-2.2-1.7-2.3-.8-.2-2.1.9-2.9 1.3L76 13l-2.2 1.5-2.2 1.6-2 1.8-1.9 1.9-1.8 2.1q-.9 1-1.5 2.2c-.4.9-.6 2.3-.6 2.8q-.2.6.3.1c.4-.2 1.3-1.2 1.9-1.9l1.4-2.2a28 28 0 0 1 3.3-3.9l2-1.7 2-1.6 2.1-1.4a25 25 0 0 1 4.2-2.1c.3 0 0 .1 0 .6l-.2 2.4-.5 2.6-.6 2.6-.7 2.5-.9 2.4-.9 2.5-1 2.4-.4 2.7q0 .7.3.2"/><path fill="#fffdf7" d="M19 36c1 20 5 38 8 50 11 6 35 6 46 0 3-12 7-30 8-50Z"/><path fill="#e2e6e7" d="M19.7 36.5c1 20 5 38 8 50 11 6 35 6 46 0 3-12 7-30 8-50z"/><path fill="#b9c1c5" d="M66.7 43.5c5-1 11-2.5 14.7-5-.7 19-4.7 36-7.7 48q-4.5 2.3-9 3.2c2-15.2 3.6-31.2 2-46.2"/><path fill="#fffdf7" d="M19 36c0-4 14-7 31-7s31 3 31 7-14 7-31 7-31-3-31-7"/><path fill="#b5a57c" d="M22.7 37c0-3 13-5 28-5s28 2 28 5c0 2.5-13 4-28 4s-28-1.5-28-4"/><path fill="#1c1b19" d="M19.1 36.1c.3-.3 1-1.4 1.6-1.9q1-.7 2.2-1.2l2.4-.8 2.6-.7 2.5-.5 2.6-.4 2.6-.3 2.6-.2 2.6-.2 2.6-.1 2.7-.1h5.2l2.6-.1h2.7l2.6.1 2.6.2 2.6.3 2.6.4 2.6.5 2.5.5 2.5.7 2.5.8q1.1.5 2.1 1.2c.7.5 1.4 1.5 1.7 1.7q.5.5.3-.1c-.2-.5-.5-1.9-1.1-2.6-.6-.6-1.7-1-2.5-1.4L75 31l-2.6-.6-2.6-.5-2.6-.4-2.7-.3-2.6-.3-2.6-.2H46l-2.6.1-2.6.1-2.7.2-2.6.3q-1.4 0-2.6.3l-2.7.3-2.6.5a25 25 0 0 0-5.1 1.6q-1.4.5-2.4 1.4c-.6.6-1.1 2-1.2 2.4q-.3.6.2.2m-.3 0c.1.5.3 2.1.9 2.8s1.8 1 2.6 1.3l2.6.9 2.6.7 2.7.6 2.6.5 2.6.4 2.7.3 2.6.3 2.7.2h5.3l2.6-.1 2.7-.1 2.6-.1 2.7-.1 2.6-.2 2.7-.3 2.6-.4 2.6-.4 2.7-.6 2.6-.7 2.5-1q1.5-.5 2.5-1.4a7 7 0 0 0 1.1-2.6q.2-.6-.2-.1c-.4.2-1.1 1.2-1.8 1.7q-1 .7-2.2 1.1l-2.4.7-2.5.5-2.6.5-2.6.3q-1.2.3-2.6.3l-2.6.3-2.6.2-2.6.1-2.6.1-2.6.1h-2.6l-2.6.1-2.6-.1-2.7-.1-2.6-.2-2.5-.4-2.6-.4-2.6-.5-2.5-.6-2.4-.6-2.4-.8-2.1-1-1.9-1.4q-.6-.4-.4.2m.2.9c-.2.4-.6 1.8-.7 2.7v2.6l.2 2.6.2 2.7.4 2.6.3 2.6.2 2.6.3 2.6.4 2.6.5 2.6.4 2.6.5 2.6.4 2.6.6 2.6.8 2.5.7 2.5.7 2.6.6 2.6c.2.9.2 2.2.8 2.9s1.9 1 2.7 1.4l2.6.9 2.6.7 2.6.6 2.6.5 2.6.3 2.7.1 2.6.1 2.7.1 2.7.1 2.6-.1 2.7-.2 2.6-.5 2.6-.5 2.6-.6 2.6-.7 2.5-1c.9-.4 2.1-.7 2.7-1.4s.6-1.9.9-2.8l.7-2.5.7-2.5.6-2.6.5-2.6.5-2.6.5-2.5.6-2.6.6-2.6.4-2.6.3-2.6.3-2.6.6-5.2.3-2.7.1-2.6.2-2.6q.3-1.3.3-2.6a9 9 0 0 0-.6-2.7q-.1-.6-.4 0c-.2.4-.8 1.7-1 2.5l-.2 2.6-.1 2.6-.2 2.6-.3 2.6-.2 2.6-.3 2.6-.4 2.6-.5 2.6-.5 2.5-.6 2.6-.5 2.6-.5 2.5-.5 2.6-.6 2.5-.6 2.6-.6 2.5-.6 2.5c-.2.8 0 1.6-.4 2.1q-.7.6-1.9.8l-2.4.9-2.5.7-2.5.6-2.5.5-2.5.5-2.6.3-2.6.1H50l-2.6-.1-2.6-.2-2.6-.2-2.5-.4-2.5-.4-2.5-.6-2.5-.8-2.3-.9q-1.2-.3-1.9-.9c-.4-.5-.2-1.2-.4-2l-.6-2.5-.6-2.6-.6-2.5-.6-2.5-.6-2.6-.5-2.6-.4-2.5-.5-2.6-.4-2.6-.5-2.5-.5-2.6-.3-2.6-.4-2.6-.2-2.6-.2-2.6-.2-2.6-.2-2.6c-.1-.8-.7-2.1-.9-2.5q-.2-.7-.4 0m4.9 40.2 2.5 1 2.5.7 2.6.6 2.7.5 2.6.4q1.2.3 2.6.3l2.7.2 2.6.1 2.6.1 2.7.1h2.7l2.6-.1 2.6-.2 2.7-.2 2.6-.4 2.6-.4 2.6-.5 2.6-.5a20 20 0 0 0 5.1-1.7q.5-.5-.1-.3l-2.6.8-2.5.5-2.6.5-2.6.4-2.6.5-2.6.3-2.6.3-2.6.2-2.7.1H50l-2.6-.1-2.7-.1-2.6-.2-2.6-.2-2.6-.3-2.6-.5-2.6-.5-2.5-.5-2.6-.6c-.9-.1-2.1-.5-2.6-.6q-.6 0-.1.3"/><path fill="#b5a57c" d="M23 41.2a9 9 0 0 1 2.5 6.8v6.5c0 2 1.4 3.5 3 3.5s3-1.5 3-3.5V48q-.2-3.7 2.5-6.2Z"/><path fill="#1c1b19" d="m22.8 41.4.8 1.4.7 1.3.5 1.5.2 1.5V52l-.1 1.6.2 1.7q.1 1 .7 1.7.6.8 1.5 1.1t1.8.1 1.5-.9.9-1.5.4-1.6v-3.3l-.1-1.7v-1.6l.1-1.6.4-1.5.7-1.4.9-1.4q.3-.3-.1-.1c-.3.1-1 .7-1.3 1.1q-.6.7-.9 1.5l-.5 1.7-.1 1.7v1.6l.1 1.7v3.2l-.2 1.5-.7 1.2q-.6.6-1.3.7a2 2 0 0 1-1.3-.2q-.6-.3-1-.9l-.5-1.3-.2-1.5v-4.9l-.1-1.7-.2-1.6-.5-1.6-.8-1.5-1.3-1.1q-.4-.3-.2.2"/><path fill="#fffdf7" d="M50 58c6.6 0 11.5 3.2 11.5 7.2s-4.9 7.2-11.5 7.2-11.5-3.2-11.5-7.2S43.4 58 50 58"/><path fill="#eaa79c" d="M50.7 58.5c6.6 0 11.5 3.2 11.5 7.2s-4.9 7.2-11.5 7.2-11.5-3.2-11.5-7.2 4.9-7.2 11.5-7.2"/><path fill="#1c1b19" d="m33.6 51.7 1.6-.1 1.5-.4 1.5-.1 1.6.1 1.5.2q.7.4 1.4.4h1.7q.4 0 .1-.3c-.2-.2-.8-.9-1.3-1.2q-.8-.3-1.7-.4l-1.7-.2h-1.6l-1.7.2-1.7.4-1.3 1.1q-.3.2.1.3m22 .1 1.7-.1q.7 0 1.4-.3l1.5-.1 1.6-.1 1.5.2 1.5.3 1.7-.1q.3 0 .1-.2l-1.4-1.2-1.7-.3-1.7-.1h-1.6l-1.7.2-1.6.4-1.4 1.1q-.3.2.1.3m-5.6 7a19 19 0 0 1 4.7.5l2.2.9q1 .5 1.8 1.3a6 6 0 0 1 2 3.7q0 1-.4 2.1-.5 1-1.4 1.7l-2 1.3-2.2.7-2.3.5-2.4.1-2.3-.3-2.3-.6-2.1-.8-1.8-1.3a5 5 0 0 1-1.4-1.5q-.4-1-.5-1.9 0-1 .5-1.9.4-1 1.2-1.7.8-.8 1.9-1.3t2.1-.8a24 24 0 0 1 4.7-.7m-2.6-1.5q-1.3.1-2.5.6-1.3.3-2.5 1t-2.2 1.5q-1 .9-1.7 2.1t-.8 2.7.6 2.8 1.8 2.2q1 .8 2.3 1.4l2.4 1 2.6.6 2.6.2 2.6-.2 2.5-.7 2.5-1q1.1-.6 2.2-1.5t1.8-2q.8-1.3.8-2.8t-.7-2.8a7 7 0 0 0-1.8-2.1q-1-.9-2.3-1.5l-2.4-1-2.6-.5-2.6-.1zM80.5 66q.6.3 1.7.5 1 0 1.7-.3l1.7-.6q.8-.3 1.5-.9.8-.5 1.4-1.2l1-1.6q.4-1 .3-2 0-1-.5-2a4 4 0 0 0-1.7-1.4q-1.2-.3-2.2.2a4 4 0 0 0-1.6 1.3q-.5 1-.6 2 0 1.1.5 2.1t1.6 1.4q.8.4 2 .4l1.8-.2q.9-.2 1.7-.8c.5-.3 1.1-1.1 1.2-1.3q.3-.4-.1-.2l-1.6.4-1.5.5-1.5.1-1.3-.3q-.6-.3-1-.9-.4-.5-.4-1.2t.3-1.3.9-1q.7-.1 1.3.1t.9.9.3 1.3q.1.8-.1 1.5l-.7 1.3-1 1.1-1.4.7-1.4.4-1.6.2-1.6.5q-.4 0 0 .3M36.1 54.6a2.1 2.1 0 1 0 4.2 0 2.1 2.1 0 1 0-4.2 0m21.6 0a2.1 2.1 0 1 0 4.2 0 2.1 2.1 0 1 0-4.2 0"/><path fill="#1c1b19" d="M44.5 65.2a1.5 2.4 0 1 0 3 0 1.5 2.4 0 1 0-3 0m8 0a1.5 2.4 0 1 0 3 0 1.5 2.4 0 1 0-3 0m61.9 11.9q-2.9 0-4.9-.9t-3.3-2.4-1.4-3.9q-.3-2.3.4-5.1l7.1-1q-.3 1.9-.2 3.7.1 1.7.6 2.9t1.8 1.1q.6 0 1-.3t.7-.9.2-1.5q0-1.9-.8-3.2t-1.9-2.4q-1.2-1-2.5-1.8l-2.3-1.7q-1.1-.9-2.1-2.1t-1.5-2.7-.5-3.4q0-2.6 1-4.5 1.2-2 3.3-3 2.1-1.1 5.1-1.1 3.4 0 5.6 1.3t3.1 3.9.5 6l-6.9.9.1-2.3-.3-2q-.3-.9-.8-1.4t-1.3-.5l-1 .2q-.4.3-.6.9-.3.5-.3 1.2 0 1.3.6 2.2t1.6 1.7l2 1.4q1.5.9 2.8 2 1.4 1.1 2.5 2.5 1 1.3 1.7 3.1.6 1.7.6 4 0 2.6-1 4.7t-3.1 3.2q-2.1 1.2-5.6 1.2m10.8-.6v-34h7.6v34Zm18.1.6q-3.3 0-5.4-1.6-2-1.6-3-4.7-.9-3-.9-7.4 0-4.9 1.1-8 1-3.1 3.1-4.5t5.2-1.4q3.4 0 5.5 1.4t3 4.4 1 7.9-1.1 7.9q-1 3.1-3.1 4.6t-5.4 1.4m.1-5.6q.7 0 1-.7.4-.8.5-2.5.2-1.6.2-4.5 0-3.3-.2-5.2-.1-1.8-.5-2.7-.3-.8-1-.8t-1 .8q-.3.9-.5 2.8l-.1 5.2q0 4.3.3 5.9.4 1.7 1.3 1.7M154.1 83V50.1h6.8v8.4h.3q.4-3.5 1-5.4t1.7-2.8q1.1-.8 2.5-.8 1.9 0 3.5 1.4t2.5 4.3 1 8q0 4.8-.9 7.9t-2.4 4.5-3.3 1.4q-1.5 0-2.6-.9-1-1-1.8-2.9-.6-1.9-1.1-4.5h-.5l.5 2.9.4 2.9.1 2.7V83Zm10-12.6q.5 0 .8-.8t.5-2.4.2-4.3q0-2.9-.2-4.5t-.5-2.4-.8-.7-.9.7-.8 1.7l-.4 2.1-.2 2.1V63l.1 2.4.3 2.1.5 1.6.7 1q.3.3.7.3m17.8 6.1v-33h9.2q2.1 0 3.8.5 1.8.6 3.1 1.7t2.1 2.7q.7 1.7.7 3.9t-.7 3.7-2.1 2.4-3.3 1.1v.5q3.5.3 5.4 2.2t2 5.5q0 3-1.3 4.9t-3.7 2.9-5.5 1Zm7.7-5.9h1.2q1.7 0 2.6-1 .8-.9.8-2.8 0-2.1-1-3.3t-2.6-1.1h-1Zm0-13.1h.8q1.5 0 2.2-1 .6-1 .6-3t-.7-3.1q-.7-1-2-1h-.9Zm19 19.6q-3 0-4.4-2.6t-1.4-8.2V50.1h7.8v14.5q0 2.7.3 4t1.2 1.2q.6 0 .9-.5t.5-1.4.2-2.2V50.1h7.7v26.4h-6.6v-9.7h-.4q0 4-.8 6.2t-2.1 3.2-2.9.9m23.9 0q-2.9 0-4.8-1.1-1.9-1-3-2.8-1.1-1.9-1.6-4.4-.5-2.4-.5-5.2t.5-5.3 1.6-4.5 3-3.1 4.7-1.2q3.3 0 5.3 1.6t2.7 4.1q.7 2.6.1 5.6l-7 .7.2-3.1q-.1-1.4-.5-2.2-.3-.7-1-.7t-1 .5-.5 1.5l-.3 2.3v2.9q0 3 .2 4.9t.7 2.8 1.2.9q.9 0 1.2-1.1.4-1.2.4-2.8t-.2-2.9l6.8.7q.5 2.1.3 4.2-.1 2.1-1 3.8-.9 1.8-2.8 2.8-1.8 1.1-4.7 1.1m9.6-.6V42.4h7.6V61q.9-1.2 1.4-2.5.6-1.4.9-2.7.4-1.5.5-2.9l.2-2.8h8.4q-.1 1.5-.6 3.4t-1.5 3.7-2.5 3.3-3.6 2.3v.4q1.7 0 3 .2t2.2.9q.9.6 1.5 1.8t.8 3.1l.8 7.3h-7.9l-.4-5.1q-.2-2.1-.5-3.3-.2-1.3-.8-1.8t-1.7-.5h-.2v10.7Zm28.6.6q-2.9 0-4.8-.9t-3-2.7-1.5-4.3-.5-5.3.4-5.4 1.5-4.6q1.1-2.1 2.9-3.2 1.9-1.2 4.8-1.2 2.6 0 4.4 1t2.8 2.9 1.4 4.6q.3 2.6-.2 6l-12.9.5v-3.6l6.4-.3-.7 2.5q.3-2.7.2-4.4t-.4-2.4-1-.8-1.2.9q-.4.8-.5 2.5-.2 1.6-.2 3.9 0 4.7.5 6.7.5 1.9 1.6 1.9.6 0 .9-.5t.5-1.2l.1-1.8-.1-1.9 7.1.6q.3 1.7.1 3.6-.1 1.8-1.1 3.4-.8 1.6-2.7 2.6-1.8.9-4.8.9m18.8-.2q-3.9 0-6.1-2.3-2.2-2.4-2.2-7.3V56h-1.4v-5h.6q1.6 0 2.2-.9.5-.8.7-2.5l.3-2.5h5.1v5h3.5v6.1h-3.5v9.6q0 1.9.6 2.8t1.5.9l.7-.1.7-.4v7.5l-1.3.3z"/></svg>